<svg width="81" height="81" viewBox="0 0 81 81" fill="none" xmlns="http://www.w3.org/2000/svg">
<path d="M17.8333 76.5C14.6852 76.5 12.0093 75.4394 9.80556 73.3182C7.60185 71.197 6.5 68.6212 6.5 65.5909V58.3182C6.5 57.2879 6.86267 56.4249 7.588 55.7291C8.31333 55.0333 9.20993 54.6842 10.2778 54.6818H17.8333V5.95455C17.8333 5.5303 18.0222 5.24182 18.4 5.08909C18.7778 4.93636 19.1241 5.01273 19.4389 5.31818L22.1778 7.95455C22.5556 8.31818 22.9963 8.5 23.5 8.5C24.0037 8.5 24.4444 8.31818 24.8222 7.95455L27.8444 5.04545C28.2222 4.68182 28.663 4.5 29.1667 4.5C29.6704 4.5 30.1111 4.68182 30.4889 5.04545L33.5111 7.95455C33.8889 8.31818 34.3296 8.5 34.8333 8.5C35.337 8.5 35.7778 8.31818 36.1556 7.95455L39.1778 5.04545C39.5556 4.68182 39.9963 4.5 40.5 4.5C41.0037 4.5 41.4444 4.68182 41.8222 5.04545L44.8444 7.95455C45.2222 8.31818 45.663 8.5 46.1667 8.5C46.6704 8.5 47.1111 8.31818 47.4889 7.95455L50.5111 5.04545C50.8889 4.68182 51.3296 4.5 51.8333 4.5C52.337 4.5 52.7778 4.68182 53.1556 5.04545L56.1778 7.95455C56.5556 8.31818 56.9963 8.5 57.5 8.5C58.0037 8.5 58.4444 8.31818 58.8222 7.95455L61.8444 5.04545C62.2222 4.68182 62.663 4.5 63.1667 4.5C63.6704 4.5 64.1111 4.68182 64.4889 5.04545L67.5111 7.95455C67.8889 8.31818 68.3296 8.5 68.8333 8.5C69.337 8.5 69.7778 8.31818 70.1556 7.95455L72.8944 5.31818C73.2093 5.01515 73.5556 4.93879 73.9333 5.08909C74.3111 5.23939 74.5 5.52788 74.5 5.95455V65.5909C74.5 68.6212 73.3981 71.197 71.1944 73.3182C68.9907 75.4394 66.3148 76.5 63.1667 76.5H17.8333ZM63.1667 69.2273C64.237 69.2273 65.1349 68.8782 65.8602 68.18C66.5856 67.4818 66.947 66.6188 66.9444 65.5909V14.6818H25.3889V54.6818H55.6111C56.6815 54.6818 57.5793 55.0309 58.3047 55.7291C59.03 56.4273 59.3914 57.2903 59.3889 58.3182V65.5909C59.3889 66.6212 59.7516 67.4855 60.4769 68.1836C61.2022 68.8818 62.0988 69.2297 63.1667 69.2273ZM32.9444 21.9545H48.0556C49.1259 21.9545 50.0238 22.3036 50.7491 23.0018C51.4744 23.7 51.8358 24.563 51.8333 25.5909C51.8308 26.6188 51.4681 27.483 50.7453 28.1836C50.0225 28.8842 49.1259 29.2321 48.0556 29.2273H32.9444C31.8741 29.2273 30.9775 28.8782 30.2547 28.18C29.5319 27.4818 29.1692 26.6188 29.1667 25.5909C29.1641 24.563 29.5268 23.7 30.2547 23.0018C30.9825 22.3036 31.8791 21.9545 32.9444 21.9545ZM32.9444 32.8636H48.0556C49.1259 32.8636 50.0238 33.2127 50.7491 33.9109C51.4744 34.6091 51.8358 35.4721 51.8333 36.5C51.8308 37.5279 51.4681 38.3921 50.7453 39.0927C50.0225 39.7933 49.1259 40.1412 48.0556 40.1364H32.9444C31.8741 40.1364 30.9775 39.7873 30.2547 39.0891C29.5319 38.3909 29.1692 37.5279 29.1667 36.5C29.1641 35.4721 29.5268 34.6091 30.2547 33.9109C30.9825 33.2127 31.8791 32.8636 32.9444 32.8636ZM59.3889 29.2273C58.3185 29.2273 57.4219 28.8782 56.6991 28.18C55.9763 27.4818 55.6136 26.6188 55.6111 25.5909C55.6086 24.563 55.9713 23.7 56.6991 23.0018C57.427 22.3036 58.3236 21.9545 59.3889 21.9545C60.4542 21.9545 61.3521 22.3036 62.0824 23.0018C62.8128 23.7 63.1742 24.563 63.1667 25.5909C63.1591 26.6188 62.7964 27.483 62.0787 28.1836C61.3609 28.8842 60.4643 29.2321 59.3889 29.2273ZM59.3889 40.1364C58.3185 40.1364 57.4219 39.7873 56.6991 39.0891C55.9763 38.3909 55.6136 37.5279 55.6111 36.5C55.6086 35.4721 55.9713 34.6091 56.6991 33.9109C57.427 33.2127 58.3236 32.8636 59.3889 32.8636C60.4542 32.8636 61.3521 33.2127 62.0824 33.9109C62.8128 34.6091 63.1742 35.4721 63.1667 36.5C63.1591 37.5279 62.7964 38.3921 62.0787 39.0927C61.3609 39.7933 60.4643 40.1412 59.3889 40.1364Z" fill="black"/>
</svg>
