<svg width="180" height="180" viewBox="0 0 180 180" fill="none" xmlns="http://www.w3.org/2000/svg">
<path opacity="0.3" d="M142.5 75C148.467 75 154.19 77.3705 158.41 81.5901C162.629 85.8097 165 91.5326 165 97.5V120C165 125.967 162.629 131.69 158.41 135.91C154.19 140.129 148.467 142.5 142.5 142.5V149.745C142.5 157.695 133.23 162.038 127.125 156.945L109.785 142.5H90C84.0326 142.5 78.3097 140.129 74.0901 135.91C69.8705 131.69 67.5 125.967 67.5 120V97.5C67.5 91.5326 69.8705 85.8097 74.0901 81.5901C78.3097 77.3705 84.0326 75 90 75H142.5Z" fill="black"/>
<path d="M120 30C125.967 30 131.69 32.3705 135.91 36.5901C140.129 40.8097 142.5 46.5326 142.5 52.5V60H82.5C74.5435 60 66.9129 63.1607 61.2868 68.7868C55.6607 74.4129 52.5 82.0435 52.5 90V120C52.5 127.83 55.5 134.97 60.42 140.31L52.5 146.25C46.32 150.885 37.5 146.475 37.5 138.75V127.5C31.5326 127.5 25.8097 125.129 21.5901 120.91C17.3705 116.69 15 110.967 15 105V52.5C15 46.5326 17.3705 40.8097 21.5901 36.5901C25.8097 32.3705 31.5326 30 37.5 30H120Z" fill="black"/>
</svg>
