<svg width="288" height="70" viewBox="0 0 288 70" fill="none" xmlns="http://www.w3.org/2000/svg">
<path d="M23.7144 10.2752C23.7144 12.7414 22.9934 14.8913 21.9283 16.3741C20.8608 17.8602 19.5632 18.5505 18.3335 18.5505C17.1039 18.5505 15.8063 17.8602 14.7388 16.3741C13.6737 14.8913 12.9526 12.7414 12.9526 10.2752C12.9526 7.80907 13.6737 5.6592 14.7388 4.17636C15.8063 2.69029 17.1039 2 18.3335 2C19.5632 2 20.8608 2.69029 21.9283 4.17636C22.9934 5.6592 23.7144 7.80907 23.7144 10.2752Z" fill="#E0E6E5" stroke="url(#paint0_linear_473_197)" stroke-width="4"/>
<line x1="26.1904" y1="8.27441" x2="35.238" y2="8.27441" stroke="url(#paint1_linear_473_197)" stroke-width="4"/>
<line y1="-2" x2="14.338" y2="-2" transform="matrix(0.697441 0.716642 -0.491878 0.870664 34.7612 10.2744)" stroke="url(#paint2_linear_473_197)" stroke-width="4"/>
<line x1="44.7617" y1="18.5513" x2="69.5235" y2="18.5513" stroke="url(#paint3_linear_473_197)" stroke-width="4"/>
<path d="M36.5714 30.825C36.5714 33.2912 35.8504 35.4411 34.7852 36.9239C33.7177 38.41 32.4201 39.1003 31.1905 39.1003C29.9608 39.1003 28.6632 38.41 27.5957 36.9239C26.5306 35.4411 25.8096 33.2912 25.8096 30.825C25.8096 28.3589 26.5306 26.209 27.5957 24.7262C28.6632 23.2401 29.9608 22.5498 31.1905 22.5498C32.4201 22.5498 33.7177 23.2401 34.7852 24.7262C35.8504 26.209 36.5714 28.3589 36.5714 30.825Z" fill="#E0E6E5" stroke="url(#paint4_linear_473_197)" stroke-width="4"/>
<line x1="38.5718" y1="28.8242" x2="70.0001" y2="28.8242" stroke="url(#paint5_linear_473_197)" stroke-width="4"/>
<path d="M27.9996 59.7244C27.9996 62.1906 27.2786 64.3405 26.2134 65.8233C25.146 67.3094 23.8484 67.9997 22.6187 67.9997C21.389 67.9997 20.0914 67.3094 19.024 65.8233C17.9588 64.3405 17.2378 62.1906 17.2378 59.7244C17.2378 57.2583 17.9588 55.1084 19.024 53.6256C20.0914 52.1395 21.389 51.4492 22.6187 51.4492C23.8484 51.4492 25.146 52.1395 26.2134 53.6256C27.2786 55.1084 27.9996 57.2583 27.9996 59.7244Z" fill="#E0E6E5" stroke="url(#paint6_linear_473_197)" stroke-width="4"/>
<line x1="30" y1="57.7246" x2="39.5238" y2="57.7246" stroke="url(#paint7_linear_473_197)" stroke-width="4"/>
<line y1="-2" x2="15.0178" y2="-2" transform="matrix(0.72929 -0.684205 0.458426 0.888732 39.5234 59.7246)" stroke="url(#paint8_linear_473_197)" stroke-width="4"/>
<line x1="49.9995" y1="47.4492" x2="69.9994" y2="47.4492" stroke="url(#paint9_linear_473_197)" stroke-width="4"/>
<line x1="30" y1="47.4492" x2="39.5238" y2="47.4492" stroke="url(#paint10_linear_473_197)" stroke-width="4"/>
<path d="M12.7618 34.6785C12.7618 37.1447 12.0408 39.2946 10.9756 40.7774C9.90816 42.2635 8.61058 42.9538 7.38091 42.9538C6.15124 42.9538 4.85365 42.2635 3.78618 40.7774C2.72102 39.2946 2 37.1447 2 34.6785C2 32.2124 2.72102 30.0625 3.78618 28.5797C4.85365 27.0936 6.15124 26.4033 7.38091 26.4033C8.61058 26.4033 9.90816 27.0936 10.9756 28.5797C12.0408 30.0625 12.7618 32.2124 12.7618 34.6785Z" fill="#E0E6E5" stroke="url(#paint11_linear_473_197)" stroke-width="4"/>
<line y1="-2" x2="18.5193" y2="-2" transform="matrix(0.874245 0.485485 -0.292013 0.956414 13.8091 40.4575)" stroke="url(#paint12_linear_473_197)" stroke-width="4"/>
<line y1="-2" x2="14.17" y2="-2" transform="matrix(0.772924 -0.634499 0.411382 0.911463 39.5234 49.4482)" stroke="url(#paint13_linear_473_197)" stroke-width="4"/>
<line x1="49.9995" y1="38.4575" x2="69.9994" y2="38.4575" stroke="url(#paint14_linear_473_197)" stroke-width="4"/>
<path d="M102.416 31.996C102.688 32.156 102.992 32.3 103.328 32.428C103.664 32.572 103.984 32.668 104.288 32.716C104.608 32.78 104.952 32.812 105.32 32.812C105.704 32.812 106.096 32.764 106.496 32.668L106.592 32.908C105.696 33.34 104.792 33.556 103.88 33.556C101.784 33.556 99.648 32.396 97.472 30.076L86.096 18.004V27.82C86.096 28.22 86.24 28.564 86.528 28.852C86.816 29.124 87.16 29.26 87.56 29.26H88.016V29.5H80.744V29.26H81.176C81.592 29.26 81.944 29.124 82.232 28.852C82.52 28.564 82.664 28.212 82.664 27.796V14.332C81.88 13.436 81.288 12.812 80.888 12.46C80.488 12.092 80.136 11.788 79.832 11.548C79.512 11.308 79.208 11.108 78.92 10.948C78.248 10.564 77.712 10.34 77.312 10.276C76.896 10.212 76.512 10.18 76.16 10.18C75.792 10.18 75.4 10.252 74.984 10.396L74.888 10.156C75.768 9.644 76.672 9.388 77.6 9.388C79.616 9.388 81.752 10.588 84.008 12.988L94.736 24.388V14.404C94.72 13.988 94.568 13.644 94.28 13.372C93.992 13.084 93.648 12.94 93.248 12.94H92.816V12.7H100.088V12.94H99.632C99.232 12.94 98.888 13.084 98.6 13.372C98.312 13.644 98.16 13.98 98.144 14.38V28.036L98.528 28.42C98.624 28.516 98.768 28.684 98.96 28.924C99.168 29.148 99.352 29.34 99.512 29.5C99.672 29.676 99.872 29.892 100.112 30.148C100.368 30.404 100.6 30.628 100.808 30.82C101.032 31.012 101.288 31.22 101.576 31.444C101.88 31.668 102.16 31.852 102.416 31.996ZM123.95 33.892C122.206 34.772 120.438 34.916 118.646 34.324C116.742 33.716 115.102 32.42 113.726 30.436C112.99 29.38 112.358 28.156 111.83 26.764L111.062 24.724H105.398L104.126 27.748C104.046 27.956 104.006 28.124 104.006 28.252C104.006 28.38 104.03 28.524 104.078 28.684C104.142 28.828 104.262 28.964 104.438 29.092C104.63 29.204 104.838 29.26 105.062 29.26H105.254V29.5H100.118V29.26H100.334C100.702 29.26 101.062 29.156 101.414 28.948C101.782 28.724 102.086 28.396 102.326 27.964L107.678 15.748C107.054 14.34 106.39 13.372 105.686 12.844C105.094 12.396 104.526 12.172 103.982 12.172C103.454 12.172 102.958 12.252 102.494 12.412L102.446 12.172C103.598 11.58 104.702 11.284 105.758 11.284C107.07 11.284 108.246 11.796 109.286 12.82C110.31 13.828 111.214 15.284 111.998 17.188L115.478 25.78C116.79 29.028 118.134 31.26 119.51 32.476C120.07 32.972 120.646 33.316 121.238 33.508C121.83 33.7 122.326 33.796 122.726 33.796C123.142 33.796 123.542 33.748 123.926 33.652L123.95 33.892ZM105.806 23.692H110.702L109.022 19.252C108.942 19.028 108.83 18.724 108.686 18.34C108.542 17.94 108.446 17.66 108.398 17.5L105.806 23.692ZM139.916 31.996C140.188 32.156 140.492 32.3 140.828 32.428C141.164 32.572 141.484 32.668 141.788 32.716C142.108 32.78 142.452 32.812 142.82 32.812C143.204 32.812 143.596 32.764 143.996 32.668L144.092 32.908C143.196 33.34 142.292 33.556 141.38 33.556C139.284 33.556 137.148 32.396 134.972 30.076L123.596 18.004V27.82C123.596 28.22 123.74 28.564 124.028 28.852C124.316 29.124 124.66 29.26 125.06 29.26H125.516V29.5H118.244V29.26H118.676C119.092 29.26 119.444 29.124 119.732 28.852C120.02 28.564 120.164 28.212 120.164 27.796V14.332C119.38 13.436 118.788 12.812 118.388 12.46C117.988 12.092 117.636 11.788 117.332 11.548C117.012 11.308 116.708 11.108 116.42 10.948C115.748 10.564 115.212 10.34 114.812 10.276C114.396 10.212 114.012 10.18 113.66 10.18C113.292 10.18 112.9 10.252 112.484 10.396L112.388 10.156C113.268 9.644 114.172 9.388 115.1 9.388C117.116 9.388 119.252 10.588 121.508 12.988L132.236 24.388V14.404C132.22 13.988 132.068 13.644 131.78 13.372C131.492 13.084 131.148 12.94 130.748 12.94H130.316V12.7H137.588V12.94H137.132C136.732 12.94 136.388 13.084 136.1 13.372C135.812 13.644 135.66 13.98 135.644 14.38V28.036L136.028 28.42C136.124 28.516 136.268 28.684 136.46 28.924C136.668 29.148 136.852 29.34 137.012 29.5C137.172 29.676 137.372 29.892 137.612 30.148C137.868 30.404 138.1 30.628 138.308 30.82C138.532 31.012 138.788 31.22 139.076 31.444C139.38 31.668 139.66 31.852 139.916 31.996ZM146.046 18.772C145.758 18.164 145.614 17.588 145.614 17.044C145.614 16.484 145.686 15.972 145.83 15.508C145.974 15.028 146.214 14.564 146.55 14.116C146.886 13.652 147.358 13.268 147.966 12.964C148.798 12.532 149.798 12.316 150.966 12.316C152.502 12.316 153.958 12.708 155.334 13.492C157.142 14.516 158.398 15.932 159.102 17.74C159.502 18.732 159.702 19.796 159.702 20.932C159.702 23.604 158.734 25.756 156.798 27.388C154.878 29.02 152.366 29.836 149.262 29.836C146.174 29.836 143.654 29.02 141.702 27.388C139.766 25.756 138.798 23.612 138.798 20.956C138.798 18.972 139.358 17.252 140.478 15.796C141.614 14.324 143.142 13.324 145.062 12.796L145.206 13.012C144.39 13.7 143.774 14.708 143.358 16.036C142.942 17.364 142.734 18.796 142.734 20.332C142.734 22.924 143.334 24.988 144.534 26.524C145.734 28.06 147.302 28.828 149.238 28.828C151.19 28.828 152.758 28.108 153.942 26.668C155.142 25.212 155.742 23.292 155.742 20.908C155.742 19.468 155.518 18.172 155.07 17.02C154.638 15.852 154.006 14.956 153.174 14.332C152.342 13.692 151.414 13.372 150.39 13.372C149.254 13.372 148.334 13.668 147.63 14.26C146.638 15.108 146.142 16.188 146.142 17.5C146.142 17.916 146.198 18.34 146.31 18.772H146.046ZM179.975 16.828C179.975 17.58 179.783 18.252 179.399 18.844C179.031 19.436 178.551 19.844 177.959 20.068C179.815 20.164 181.167 20.892 182.015 22.252C182.447 22.94 182.663 23.788 182.663 24.796C182.663 25.804 182.271 26.724 181.487 27.556C180.719 28.388 179.735 28.98 178.535 29.332C177.335 29.684 176.071 29.86 174.743 29.86C171.431 29.86 169.063 28.98 167.639 27.22C166.727 26.1 166.271 24.588 166.271 22.684C166.271 22.364 166.287 22.044 166.319 21.724L166.559 21.7C166.671 24.452 167.655 26.42 169.511 27.604V14.428C169.495 13.836 169.231 13.404 168.719 13.132C168.495 13.004 168.247 12.94 167.975 12.94H167.663V12.7H173.759C175.535 12.7 177.015 13.06 178.199 13.78C179.383 14.484 179.975 15.5 179.975 16.828ZM173.783 28.732C175.271 28.732 176.431 28.34 177.263 27.556C178.111 26.772 178.535 25.74 178.535 24.46C178.535 23.66 178.383 22.988 178.079 22.444C177.791 21.884 177.407 21.468 176.927 21.196C176.047 20.668 175.047 20.404 173.927 20.404V20.188C174.439 20.188 174.871 20.004 175.223 19.636C175.831 18.996 176.135 18.124 176.135 17.02C176.135 15.916 175.887 15.1 175.391 14.572C174.911 14.044 174.151 13.764 173.111 13.732V28.708C173.335 28.724 173.559 28.732 173.783 28.732ZM180.322 11.308C180.578 11.292 180.986 11.284 181.546 11.284C182.09 11.284 182.81 11.404 183.706 11.644C184.618 11.868 185.458 12.228 186.226 12.724C186.994 13.22 187.698 13.82 188.338 14.524C189.522 15.836 190.45 17.412 191.122 19.252C192.082 16.516 193.33 14.42 194.866 12.964C196.034 11.86 197.322 11.308 198.73 11.308C198.794 11.308 198.858 11.308 198.922 11.308V11.548C198.122 11.564 197.29 11.988 196.426 12.82C195.578 13.636 194.834 14.628 194.194 15.796C193.554 16.964 193.01 18.18 192.562 19.444C192.13 20.708 191.874 21.804 191.794 22.732V27.748C191.794 28.148 191.938 28.5 192.226 28.804C192.53 29.108 192.898 29.26 193.33 29.26H193.642V29.5H186.346V29.26H186.658C187.074 29.26 187.426 29.116 187.714 28.828C188.018 28.524 188.178 28.164 188.194 27.748V22.708C188.002 20.98 187.426 19.148 186.466 17.212C185.362 14.972 184.122 13.38 182.746 12.436C181.946 11.876 181.138 11.58 180.322 11.548V11.308ZM198.533 18.292C197.749 17.54 197.357 16.732 197.357 15.868C197.357 15.196 197.573 14.612 198.005 14.116C198.821 13.156 199.965 12.676 201.437 12.676H212.741C213.445 12.66 214.061 12.604 214.589 12.508C215.117 12.396 215.453 12.308 215.597 12.244V16.42H215.357V16.132C215.357 15.412 215.141 14.828 214.709 14.38C214.277 13.932 213.693 13.7 212.957 13.684H209.717V27.772C209.749 28.348 210.013 28.78 210.509 29.068C210.733 29.196 210.981 29.26 211.253 29.26H211.565V29.5H204.269V29.26H204.581C204.997 29.26 205.349 29.116 205.637 28.828C205.941 28.54 206.101 28.196 206.117 27.796V13.684H201.437C200.781 13.684 200.205 13.804 199.709 14.044C198.701 14.524 198.197 15.276 198.197 16.3C198.197 16.908 198.389 17.532 198.773 18.172L198.533 18.292ZM217.211 29.26C217.627 29.26 217.979 29.116 218.267 28.828C218.571 28.524 218.731 28.164 218.747 27.748V14.38C218.699 13.82 218.435 13.404 217.955 13.132C217.715 13.004 217.467 12.94 217.211 12.94H216.899V12.7H223.643C224.347 12.7 224.963 12.644 225.491 12.532C226.019 12.42 226.363 12.332 226.523 12.268V16.468H226.259V16.18C226.275 15.46 226.067 14.884 225.635 14.452C225.219 14.004 224.651 13.764 223.931 13.732H222.347V20.716H226.163C226.755 20.7 227.243 20.5 227.627 20.116C228.011 19.716 228.203 19.228 228.203 18.652V18.436H228.419V23.98H228.203V23.788C228.203 23.196 228.011 22.708 227.627 22.324C227.243 21.94 226.763 21.74 226.187 21.724H222.347V28.468H227.027C228.195 28.468 229.171 28.132 229.955 27.46C230.755 26.788 231.347 25.836 231.731 24.604H231.971L230.843 29.5H216.899V29.26H217.211Z" fill="#83722C"/>
<path d="M81.162 55V45.2H83.43V53.152H88.344V55H81.162ZM94.2208 55.168C93.4462 55.168 92.7275 55.042 92.0648 54.79C91.4115 54.538 90.8422 54.1833 90.3568 53.726C89.8808 53.2687 89.5075 52.732 89.2368 52.116C88.9755 51.5 88.8448 50.828 88.8448 50.1C88.8448 49.372 88.9755 48.7 89.2368 48.084C89.5075 47.468 89.8855 46.9313 90.3708 46.474C90.8562 46.0167 91.4255 45.662 92.0788 45.41C92.7322 45.158 93.4415 45.032 94.2068 45.032C94.9815 45.032 95.6908 45.158 96.3348 45.41C96.9882 45.662 97.5528 46.0167 98.0288 46.474C98.5142 46.9313 98.8922 47.468 99.1628 48.084C99.4335 48.6907 99.5688 49.3627 99.5688 50.1C99.5688 50.828 99.4335 51.5047 99.1628 52.13C98.8922 52.746 98.5142 53.2827 98.0288 53.74C97.5528 54.188 96.9882 54.538 96.3348 54.79C95.6908 55.042 94.9862 55.168 94.2208 55.168ZM94.2068 53.236C94.6455 53.236 95.0468 53.1613 95.4108 53.012C95.7842 52.8627 96.1108 52.648 96.3908 52.368C96.6708 52.088 96.8855 51.7567 97.0348 51.374C97.1935 50.9913 97.2728 50.5667 97.2728 50.1C97.2728 49.6333 97.1935 49.2087 97.0348 48.826C96.8855 48.4433 96.6708 48.112 96.3908 47.832C96.1202 47.552 95.7982 47.3373 95.4248 47.188C95.0515 47.0387 94.6455 46.964 94.2068 46.964C93.7682 46.964 93.3622 47.0387 92.9888 47.188C92.6248 47.3373 92.3028 47.552 92.0228 47.832C91.7428 48.112 91.5235 48.4433 91.3648 48.826C91.2155 49.2087 91.1408 49.6333 91.1408 50.1C91.1408 50.5573 91.2155 50.982 91.3648 51.374C91.5235 51.7567 91.7382 52.088 92.0088 52.368C92.2888 52.648 92.6155 52.8627 92.9888 53.012C93.3622 53.1613 93.7682 53.236 94.2068 53.236ZM106.005 55.168C105.231 55.168 104.517 55.0467 103.863 54.804C103.219 54.552 102.655 54.1973 102.169 53.74C101.693 53.2827 101.32 52.746 101.049 52.13C100.788 51.514 100.657 50.8373 100.657 50.1C100.657 49.3627 100.788 48.686 101.049 48.07C101.32 47.454 101.698 46.9173 102.183 46.46C102.669 46.0027 103.238 45.6527 103.891 45.41C104.545 45.158 105.263 45.032 106.047 45.032C106.915 45.032 107.695 45.1767 108.385 45.466C109.085 45.7553 109.673 46.1753 110.149 46.726L108.693 48.07C108.339 47.6967 107.951 47.4213 107.531 47.244C107.111 47.0573 106.654 46.964 106.159 46.964C105.683 46.964 105.249 47.0387 104.857 47.188C104.465 47.3373 104.125 47.552 103.835 47.832C103.555 48.112 103.336 48.4433 103.177 48.826C103.028 49.2087 102.953 49.6333 102.953 50.1C102.953 50.5573 103.028 50.9773 103.177 51.36C103.336 51.7427 103.555 52.0787 103.835 52.368C104.125 52.648 104.461 52.8627 104.843 53.012C105.235 53.1613 105.665 53.236 106.131 53.236C106.579 53.236 107.013 53.166 107.433 53.026C107.863 52.8767 108.278 52.6293 108.679 52.284L109.967 53.922C109.435 54.3233 108.815 54.6313 108.105 54.846C107.405 55.0607 106.705 55.168 106.005 55.168ZM107.895 53.628V49.946H109.967V53.922L107.895 53.628ZM112.074 55V45.2H114.342V55H112.074ZM121.358 55.168C120.602 55.168 119.897 55.0467 119.244 54.804C118.6 54.552 118.04 54.1973 117.564 53.74C117.088 53.2827 116.715 52.746 116.444 52.13C116.183 51.514 116.052 50.8373 116.052 50.1C116.052 49.3627 116.183 48.686 116.444 48.07C116.715 47.454 117.088 46.9173 117.564 46.46C118.049 46.0027 118.614 45.6527 119.258 45.41C119.902 45.158 120.607 45.032 121.372 45.032C122.221 45.032 122.987 45.1813 123.668 45.48C124.359 45.7693 124.937 46.1987 125.404 46.768L123.948 48.112C123.612 47.7293 123.239 47.4447 122.828 47.258C122.417 47.062 121.969 46.964 121.484 46.964C121.027 46.964 120.607 47.0387 120.224 47.188C119.841 47.3373 119.51 47.552 119.23 47.832C118.95 48.112 118.731 48.4433 118.572 48.826C118.423 49.2087 118.348 49.6333 118.348 50.1C118.348 50.5667 118.423 50.9913 118.572 51.374C118.731 51.7567 118.95 52.088 119.23 52.368C119.51 52.648 119.841 52.8627 120.224 53.012C120.607 53.1613 121.027 53.236 121.484 53.236C121.969 53.236 122.417 53.1427 122.828 52.956C123.239 52.76 123.612 52.466 123.948 52.074L125.404 53.418C124.937 53.9873 124.359 54.4213 123.668 54.72C122.987 55.0187 122.217 55.168 121.358 55.168ZM130.9 55V45.2H132.776L136.948 52.116H135.954L140.056 45.2H141.918L141.946 55H139.818L139.804 48.462H140.196L136.92 53.964H135.898L132.552 48.462H133.028V55H130.9ZM146.357 49.148H151.075V50.912H146.357V49.148ZM146.525 53.18H151.859V55H144.271V45.2H151.677V47.02H146.525V53.18ZM155.75 49.148H160.468V50.912H155.75V49.148ZM155.918 53.18H161.252V55H153.664V45.2H161.07V47.02H155.918V53.18ZM165.087 55V47.048H161.951V45.2H170.491V47.048H167.355V55H165.087ZM174.862 55.168C174.078 55.168 173.327 55.0653 172.608 54.86C171.89 54.6453 171.311 54.37 170.872 54.034L171.642 52.326C172.062 52.6247 172.557 52.872 173.126 53.068C173.705 53.2547 174.288 53.348 174.876 53.348C175.324 53.348 175.684 53.306 175.954 53.222C176.234 53.1287 176.44 53.0027 176.57 52.844C176.701 52.6853 176.766 52.5033 176.766 52.298C176.766 52.0367 176.664 51.8313 176.458 51.682C176.253 51.5233 175.982 51.3973 175.646 51.304C175.31 51.2013 174.937 51.108 174.526 51.024C174.125 50.9307 173.719 50.8187 173.308 50.688C172.907 50.5573 172.538 50.3893 172.202 50.184C171.866 49.9787 171.591 49.708 171.376 49.372C171.171 49.036 171.068 48.6067 171.068 48.084C171.068 47.524 171.218 47.0153 171.516 46.558C171.824 46.0913 172.282 45.7227 172.888 45.452C173.504 45.172 174.274 45.032 175.198 45.032C175.814 45.032 176.421 45.1067 177.018 45.256C177.616 45.396 178.143 45.6107 178.6 45.9L177.9 47.622C177.443 47.3607 176.986 47.1693 176.528 47.048C176.071 46.9173 175.623 46.852 175.184 46.852C174.746 46.852 174.386 46.9033 174.106 47.006C173.826 47.1087 173.626 47.244 173.504 47.412C173.383 47.5707 173.322 47.7573 173.322 47.972C173.322 48.224 173.425 48.4293 173.63 48.588C173.836 48.7373 174.106 48.8587 174.442 48.952C174.778 49.0453 175.147 49.1387 175.548 49.232C175.959 49.3253 176.365 49.4327 176.766 49.554C177.177 49.6753 177.55 49.8387 177.886 50.044C178.222 50.2493 178.493 50.52 178.698 50.856C178.913 51.192 179.02 51.6167 179.02 52.13C179.02 52.6807 178.866 53.1847 178.558 53.642C178.25 54.0993 177.788 54.468 177.172 54.748C176.566 55.028 175.796 55.168 174.862 55.168ZM184.535 55V45.2H188.987C190.051 45.2 190.989 45.4053 191.801 45.816C192.613 46.2173 193.248 46.782 193.705 47.51C194.162 48.238 194.391 49.1013 194.391 50.1C194.391 51.0893 194.162 51.9527 193.705 52.69C193.248 53.418 192.613 53.9873 191.801 54.398C190.989 54.7993 190.051 55 188.987 55H184.535ZM186.803 53.138H188.875C189.528 53.138 190.093 53.0167 190.569 52.774C191.054 52.522 191.428 52.1673 191.689 51.71C191.96 51.2527 192.095 50.716 192.095 50.1C192.095 49.4747 191.96 48.938 191.689 48.49C191.428 48.0327 191.054 47.6827 190.569 47.44C190.093 47.188 189.528 47.062 188.875 47.062H186.803V53.138ZM198.187 49.148H202.905V50.912H198.187V49.148ZM198.355 53.18H203.689V55H196.101V45.2H203.507V47.02H198.355V53.18ZM208.714 55.168C207.93 55.168 207.179 55.0653 206.46 54.86C205.741 54.6453 205.163 54.37 204.724 54.034L205.494 52.326C205.914 52.6247 206.409 52.872 206.978 53.068C207.557 53.2547 208.14 53.348 208.728 53.348C209.176 53.348 209.535 53.306 209.806 53.222C210.086 53.1287 210.291 53.0027 210.422 52.844C210.553 52.6853 210.618 52.5033 210.618 52.298C210.618 52.0367 210.515 51.8313 210.31 51.682C210.105 51.5233 209.834 51.3973 209.498 51.304C209.162 51.2013 208.789 51.108 208.378 51.024C207.977 50.9307 207.571 50.8187 207.16 50.688C206.759 50.5573 206.39 50.3893 206.054 50.184C205.718 49.9787 205.443 49.708 205.228 49.372C205.023 49.036 204.92 48.6067 204.92 48.084C204.92 47.524 205.069 47.0153 205.368 46.558C205.676 46.0913 206.133 45.7227 206.74 45.452C207.356 45.172 208.126 45.032 209.05 45.032C209.666 45.032 210.273 45.1067 210.87 45.256C211.467 45.396 211.995 45.6107 212.452 45.9L211.752 47.622C211.295 47.3607 210.837 47.1693 210.38 47.048C209.923 46.9173 209.475 46.852 209.036 46.852C208.597 46.852 208.238 46.9033 207.958 47.006C207.678 47.1087 207.477 47.244 207.356 47.412C207.235 47.5707 207.174 47.7573 207.174 47.972C207.174 48.224 207.277 48.4293 207.482 48.588C207.687 48.7373 207.958 48.8587 208.294 48.952C208.63 49.0453 208.999 49.1387 209.4 49.232C209.811 49.3253 210.217 49.4327 210.618 49.554C211.029 49.6753 211.402 49.8387 211.738 50.044C212.074 50.2493 212.345 50.52 212.55 50.856C212.765 51.192 212.872 51.6167 212.872 52.13C212.872 52.6807 212.718 53.1847 212.41 53.642C212.102 54.0993 211.64 54.468 211.024 54.748C210.417 55.028 209.647 55.168 208.714 55.168ZM214.422 55V45.2H216.69V55H214.422ZM223.748 55.168C222.973 55.168 222.259 55.0467 221.606 54.804C220.962 54.552 220.397 54.1973 219.912 53.74C219.436 53.2827 219.062 52.746 218.792 52.13C218.53 51.514 218.4 50.8373 218.4 50.1C218.4 49.3627 218.53 48.686 218.792 48.07C219.062 47.454 219.44 46.9173 219.926 46.46C220.411 46.0027 220.98 45.6527 221.634 45.41C222.287 45.158 223.006 45.032 223.79 45.032C224.658 45.032 225.437 45.1767 226.128 45.466C226.828 45.7553 227.416 46.1753 227.892 46.726L226.436 48.07C226.081 47.6967 225.694 47.4213 225.274 47.244C224.854 47.0573 224.396 46.964 223.902 46.964C223.426 46.964 222.992 47.0387 222.6 47.188C222.208 47.3373 221.867 47.552 221.578 47.832C221.298 48.112 221.078 48.4433 220.92 48.826C220.77 49.2087 220.696 49.6333 220.696 50.1C220.696 50.5573 220.77 50.9773 220.92 51.36C221.078 51.7427 221.298 52.0787 221.578 52.368C221.867 52.648 222.203 52.8627 222.586 53.012C222.978 53.1613 223.407 53.236 223.874 53.236C224.322 53.236 224.756 53.166 225.176 53.026C225.605 52.8767 226.02 52.6293 226.422 52.284L227.71 53.922C227.178 54.3233 226.557 54.6313 225.848 54.846C225.148 55.0607 224.448 55.168 223.748 55.168ZM225.638 53.628V49.946H227.71V53.922L225.638 53.628ZM229.816 55V45.2H231.692L237.474 52.256H236.564V45.2H238.804V55H236.942L231.146 47.944H232.056V55H229.816Z" fill="#705F1A"/>
<defs>
<linearGradient id="paint0_linear_473_197" x1="18.3335" y1="0" x2="18.3335" y2="20.5505" gradientUnits="userSpaceOnUse">
<stop offset="0.30373" stop-color="#CBB24D" stop-opacity="0.85"/>
<stop offset="0.49873" stop-color="#E4C031" stop-opacity="0.45"/>
<stop offset="0.94873" stop-color="#F9D235" stop-opacity="0.6"/>
</linearGradient>
<linearGradient id="paint1_linear_473_197" x1="30.7142" y1="10.2744" x2="30.7142" y2="11.2744" gradientUnits="userSpaceOnUse">
<stop offset="0.30373" stop-color="#CBB24D" stop-opacity="0.85"/>
<stop offset="0.49873" stop-color="#E4C031" stop-opacity="0.45"/>
<stop offset="0.94873" stop-color="#F9D235" stop-opacity="0.6"/>
</linearGradient>
<linearGradient id="paint2_linear_473_197" x1="7.16901" y1="0" x2="7.16901" y2="1" gradientUnits="userSpaceOnUse">
<stop offset="0.30373" stop-color="#CBB24D" stop-opacity="0.85"/>
<stop offset="0.49873" stop-color="#E4C031" stop-opacity="0.45"/>
<stop offset="0.94873" stop-color="#F9D235" stop-opacity="0.6"/>
</linearGradient>
<linearGradient id="paint3_linear_473_197" x1="57.1426" y1="20.5513" x2="57.1426" y2="21.5513" gradientUnits="userSpaceOnUse">
<stop offset="0.30373" stop-color="#CBB24D" stop-opacity="0.85"/>
<stop offset="0.49873" stop-color="#E4C031" stop-opacity="0.45"/>
<stop offset="0.94873" stop-color="#F9D235" stop-opacity="0.6"/>
</linearGradient>
<linearGradient id="paint4_linear_473_197" x1="31.1905" y1="20.5498" x2="31.1905" y2="41.1003" gradientUnits="userSpaceOnUse">
<stop offset="0.30373" stop-color="#CBB24D" stop-opacity="0.85"/>
<stop offset="0.49873" stop-color="#E4C031" stop-opacity="0.45"/>
<stop offset="0.94873" stop-color="#F9D235" stop-opacity="0.6"/>
</linearGradient>
<linearGradient id="paint5_linear_473_197" x1="54.286" y1="30.8242" x2="54.286" y2="31.8242" gradientUnits="userSpaceOnUse">
<stop offset="0.30373" stop-color="#CBB24D" stop-opacity="0.85"/>
<stop offset="0.49873" stop-color="#E4C031" stop-opacity="0.45"/>
<stop offset="0.94873" stop-color="#F9D235" stop-opacity="0.6"/>
</linearGradient>
<linearGradient id="paint6_linear_473_197" x1="22.6187" y1="49.4492" x2="22.6187" y2="69.9997" gradientUnits="userSpaceOnUse">
<stop offset="0.30373" stop-color="#CBB24D" stop-opacity="0.85"/>
<stop offset="0.49873" stop-color="#E4C031" stop-opacity="0.45"/>
<stop offset="0.94873" stop-color="#F9D235" stop-opacity="0.6"/>
</linearGradient>
<linearGradient id="paint7_linear_473_197" x1="34.7619" y1="59.7246" x2="34.7619" y2="60.7246" gradientUnits="userSpaceOnUse">
<stop offset="0.30373" stop-color="#CBB24D" stop-opacity="0.85"/>
<stop offset="0.49873" stop-color="#E4C031" stop-opacity="0.45"/>
<stop offset="0.94873" stop-color="#F9D235" stop-opacity="0.6"/>
</linearGradient>
<linearGradient id="paint8_linear_473_197" x1="7.50889" y1="0" x2="7.50889" y2="1" gradientUnits="userSpaceOnUse">
<stop offset="0.30373" stop-color="#CBB24D" stop-opacity="0.85"/>
<stop offset="0.49873" stop-color="#E4C031" stop-opacity="0.45"/>
<stop offset="0.94873" stop-color="#F9D235" stop-opacity="0.6"/>
</linearGradient>
<linearGradient id="paint9_linear_473_197" x1="59.9994" y1="49.4492" x2="59.9994" y2="50.4492" gradientUnits="userSpaceOnUse">
<stop offset="0.30373" stop-color="#CBB24D" stop-opacity="0.85"/>
<stop offset="0.49873" stop-color="#E4C031" stop-opacity="0.45"/>
<stop offset="0.94873" stop-color="#F9D235" stop-opacity="0.6"/>
</linearGradient>
<linearGradient id="paint10_linear_473_197" x1="34.7619" y1="49.4492" x2="34.7619" y2="50.4492" gradientUnits="userSpaceOnUse">
<stop offset="0.30373" stop-color="#CBB24D" stop-opacity="0.85"/>
<stop offset="0.49873" stop-color="#E4C031" stop-opacity="0.45"/>
<stop offset="0.94873" stop-color="#F9D235" stop-opacity="0.6"/>
</linearGradient>
<linearGradient id="paint11_linear_473_197" x1="7.38091" y1="24.4033" x2="7.38091" y2="44.9538" gradientUnits="userSpaceOnUse">
<stop offset="0.30373" stop-color="#CBB24D" stop-opacity="0.85"/>
<stop offset="0.49873" stop-color="#E4C031" stop-opacity="0.45"/>
<stop offset="0.94873" stop-color="#F9D235" stop-opacity="0.6"/>
</linearGradient>
<linearGradient id="paint12_linear_473_197" x1="9.25963" y1="0" x2="9.25963" y2="1" gradientUnits="userSpaceOnUse">
<stop offset="0.30373" stop-color="#CBB24D" stop-opacity="0.85"/>
<stop offset="0.49873" stop-color="#E4C031" stop-opacity="0.45"/>
<stop offset="0.94873" stop-color="#F9D235" stop-opacity="0.6"/>
</linearGradient>
<linearGradient id="paint13_linear_473_197" x1="7.08499" y1="0" x2="7.08499" y2="1" gradientUnits="userSpaceOnUse">
<stop offset="0.30373" stop-color="#CBB24D" stop-opacity="0.85"/>
<stop offset="0.49873" stop-color="#E4C031" stop-opacity="0.45"/>
<stop offset="0.94873" stop-color="#F9D235" stop-opacity="0.6"/>
</linearGradient>
<linearGradient id="paint14_linear_473_197" x1="59.9994" y1="40.4575" x2="59.9994" y2="41.4575" gradientUnits="userSpaceOnUse">
<stop offset="0.30373" stop-color="#CBB24D" stop-opacity="0.85"/>
<stop offset="0.49873" stop-color="#E4C031" stop-opacity="0.45"/>
<stop offset="0.94873" stop-color="#F9D235" stop-opacity="0.6"/>
</linearGradient>
</defs>
</svg>
