<svg width="51" height="40" viewBox="0 0 51 40" fill="none" xmlns="http://www.w3.org/2000/svg">
<g clip-path="url(#clip0_447_209)">
<rect width="50" height="40" transform="translate(0.5)" fill="#034C53"/>
<path d="M30.5 25H20.5C19.1195 25 18 26.1195 18 27.5V37.5C18 38.8805 19.1195 40 20.5 40H30.5C31.8805 40 33 38.8805 33 37.5V27.5C33 26.1195 31.8805 25 30.5 25ZM15.5 2.5C15.5 1.11953 14.3805 0 13 0H3C1.61953 0 0.5 1.11953 0.5 2.5V12.5C0.5 13.8805 1.61953 15 3 15H10.4781L16.1938 25.0031C17.0609 23.5141 18.6562 22.5 20.5 22.5H20.5219L15.5 13.7117V10H33V5H15.5V2.5ZM48 0H38C36.6195 0 35.5 1.11953 35.5 2.5V12.5C35.5 13.8805 36.6195 15 38 15H48C49.3805 15 50.5 13.8805 50.5 12.5V2.5C50.5 1.11953 49.3805 0 48 0Z" fill="white"/>
</g>
<defs>
<clipPath id="clip0_447_209">
<rect width="50" height="40" fill="white" transform="translate(0.5)"/>
</clipPath>
</defs>
</svg>
