<svg width="50" height="50" viewBox="0 0 50 50" fill="none" xmlns="http://www.w3.org/2000/svg">
<path d="M4.16682 47.0833C4.16682 47.8569 4.47412 48.5987 5.0211 49.1457C5.56808 49.6927 6.30994 50 7.08349 50H9.58349C10.357 50 11.0989 49.6927 11.6459 49.1457C12.1929 48.5987 12.5002 47.8569 12.5002 47.0833V2.91667C12.5002 2.14312 12.1929 1.40125 11.6459 0.854272C11.0989 0.307291 10.357 0 9.58349 0H7.08349C6.70047 0 6.3212 0.0754418 5.96733 0.222018C5.61346 0.368594 5.29194 0.583434 5.0211 0.854272C4.75026 1.12511 4.53542 1.44664 4.38885 1.80051C4.24227 2.15437 4.16683 2.53364 4.16682 2.91667V47.0833ZM20.8335 17.9167C20.8335 18.6902 21.1408 19.4321 21.6878 19.9791C22.2347 20.526 22.9766 20.8333 23.7502 20.8333H26.2502C26.6332 20.8333 27.0125 20.7579 27.3663 20.6113C27.7202 20.4647 28.0417 20.2499 28.3126 19.9791C28.5834 19.7082 28.7982 19.3867 28.9448 19.0328C29.0914 18.679 29.1668 18.2997 29.1668 17.9167V7.08333C29.1668 6.30979 28.8595 5.56792 28.3126 5.02094C27.7656 4.47396 27.0237 4.16667 26.2502 4.16667H23.7502C22.9766 4.16667 22.2347 4.47396 21.6878 5.02094C21.1408 5.56792 20.8335 6.30979 20.8335 7.08333V17.9167ZM37.5022 34.5833C37.5022 35.3569 37.8095 36.0987 38.3565 36.6457C38.9035 37.1927 39.6454 37.5 40.4189 37.5H42.9168C43.6904 37.5 44.4322 37.1927 44.9792 36.6457C45.5262 36.0987 45.8335 35.3569 45.8335 34.5833V15.4167C45.8335 14.6431 45.5262 13.9013 44.9792 13.3543C44.4322 12.8073 43.6904 12.5 42.9168 12.5H40.4168C39.6433 12.5 38.9014 12.8073 38.3544 13.3543C37.8075 13.9013 37.5002 14.6431 37.5002 15.4167L37.5022 34.5833ZM20.8335 42.9167C20.8335 43.6902 21.1408 44.4321 21.6878 44.9791C22.2347 45.526 22.9766 45.8333 23.7502 45.8333H26.2502C27.0237 45.8333 27.7656 45.526 28.3126 44.9791C28.8595 44.4321 29.1668 43.6902 29.1668 42.9167V32.0833C29.1668 31.3098 28.8595 30.5679 28.3126 30.0209C27.7656 29.474 27.0237 29.1667 26.2502 29.1667H23.7502C22.9766 29.1667 22.2347 29.474 21.6878 30.0209C21.1408 30.5679 20.8335 31.3098 20.8335 32.0833V42.9167Z" fill="black"/>
</svg>
